<mxfile host="app.diagrams.net" modified="2023-04-20T05:57:14.366Z" agent="Mozilla/5.0 (Windows NT 10.0; Win64; x64) AppleWebKit/537.36 (KHTML, like Gecko) Chrome/112.0.0.0 Safari/537.36 Edg/112.0.1722.48" etag="h5pBFHIUlpj6Ojyws3c3" version="21.1.7" type="github">
  <diagram name="第 1 页" id="Ta6P4ruYIfIc_HEsW1fu">
    <mxGraphModel dx="3716" dy="693" grid="1" gridSize="10" guides="1" tooltips="1" connect="1" arrows="1" fold="1" page="1" pageScale="1" pageWidth="827" pageHeight="1169" math="0" shadow="0">
      <root>
        <mxCell id="0" />
        <mxCell id="1" parent="0" />
        <mxCell id="khZXWstZWjZ8gAjqF4nT-13" value="学生" style="swimlane;fontStyle=1;align=center;verticalAlign=top;childLayout=stackLayout;horizontal=1;startSize=26;horizontalStack=0;resizeParent=1;resizeParentMax=0;resizeLast=0;collapsible=1;marginBottom=0;whiteSpace=wrap;html=1;" vertex="1" parent="1">
          <mxGeometry x="-85" y="18" width="160" height="34" as="geometry" />
        </mxCell>
        <mxCell id="khZXWstZWjZ8gAjqF4nT-14" value="" style="line;strokeWidth=1;fillColor=none;align=left;verticalAlign=middle;spacingTop=-1;spacingLeft=3;spacingRight=3;rotatable=0;labelPosition=right;points=[];portConstraint=eastwest;strokeColor=inherit;" vertex="1" parent="khZXWstZWjZ8gAjqF4nT-13">
          <mxGeometry y="26" width="160" height="8" as="geometry" />
        </mxCell>
        <mxCell id="khZXWstZWjZ8gAjqF4nT-15" value="本科生" style="swimlane;fontStyle=1;align=center;verticalAlign=top;childLayout=stackLayout;horizontal=1;startSize=26;horizontalStack=0;resizeParent=1;resizeParentMax=0;resizeLast=0;collapsible=1;marginBottom=0;whiteSpace=wrap;html=1;" vertex="1" parent="1">
          <mxGeometry x="-300" y="178" width="160" height="34" as="geometry" />
        </mxCell>
        <mxCell id="khZXWstZWjZ8gAjqF4nT-16" value="" style="line;strokeWidth=1;fillColor=none;align=left;verticalAlign=middle;spacingTop=-1;spacingLeft=3;spacingRight=3;rotatable=0;labelPosition=right;points=[];portConstraint=eastwest;strokeColor=inherit;" vertex="1" parent="khZXWstZWjZ8gAjqF4nT-15">
          <mxGeometry y="26" width="160" height="8" as="geometry" />
        </mxCell>
        <mxCell id="khZXWstZWjZ8gAjqF4nT-17" value="研究生" style="swimlane;fontStyle=1;align=center;verticalAlign=top;childLayout=stackLayout;horizontal=1;startSize=26;horizontalStack=0;resizeParent=1;resizeParentMax=0;resizeLast=0;collapsible=1;marginBottom=0;whiteSpace=wrap;html=1;" vertex="1" parent="1">
          <mxGeometry x="-40" y="178" width="160" height="34" as="geometry" />
        </mxCell>
        <mxCell id="khZXWstZWjZ8gAjqF4nT-18" value="" style="line;strokeWidth=1;fillColor=none;align=left;verticalAlign=middle;spacingTop=-1;spacingLeft=3;spacingRight=3;rotatable=0;labelPosition=right;points=[];portConstraint=eastwest;strokeColor=inherit;" vertex="1" parent="khZXWstZWjZ8gAjqF4nT-17">
          <mxGeometry y="26" width="160" height="8" as="geometry" />
        </mxCell>
        <mxCell id="khZXWstZWjZ8gAjqF4nT-19" value="教师" style="swimlane;fontStyle=1;align=center;verticalAlign=top;childLayout=stackLayout;horizontal=1;startSize=26;horizontalStack=0;resizeParent=1;resizeParentMax=0;resizeLast=0;collapsible=1;marginBottom=0;whiteSpace=wrap;html=1;" vertex="1" parent="1">
          <mxGeometry x="200" y="28" width="160" height="34" as="geometry" />
        </mxCell>
        <mxCell id="khZXWstZWjZ8gAjqF4nT-20" value="" style="line;strokeWidth=1;fillColor=none;align=left;verticalAlign=middle;spacingTop=-1;spacingLeft=3;spacingRight=3;rotatable=0;labelPosition=right;points=[];portConstraint=eastwest;strokeColor=inherit;" vertex="1" parent="khZXWstZWjZ8gAjqF4nT-19">
          <mxGeometry y="26" width="160" height="8" as="geometry" />
        </mxCell>
        <mxCell id="khZXWstZWjZ8gAjqF4nT-21" value="讲师" style="swimlane;fontStyle=1;align=center;verticalAlign=top;childLayout=stackLayout;horizontal=1;startSize=26;horizontalStack=0;resizeParent=1;resizeParentMax=0;resizeLast=0;collapsible=1;marginBottom=0;whiteSpace=wrap;html=1;" vertex="1" parent="1">
          <mxGeometry x="190" y="178" width="160" height="34" as="geometry" />
        </mxCell>
        <mxCell id="khZXWstZWjZ8gAjqF4nT-22" value="" style="line;strokeWidth=1;fillColor=none;align=left;verticalAlign=middle;spacingTop=-1;spacingLeft=3;spacingRight=3;rotatable=0;labelPosition=right;points=[];portConstraint=eastwest;strokeColor=inherit;" vertex="1" parent="khZXWstZWjZ8gAjqF4nT-21">
          <mxGeometry y="26" width="160" height="8" as="geometry" />
        </mxCell>
        <mxCell id="khZXWstZWjZ8gAjqF4nT-23" value="教授" style="swimlane;fontStyle=1;align=center;verticalAlign=top;childLayout=stackLayout;horizontal=1;startSize=26;horizontalStack=0;resizeParent=1;resizeParentMax=0;resizeLast=0;collapsible=1;marginBottom=0;whiteSpace=wrap;html=1;" vertex="1" parent="1">
          <mxGeometry x="570" y="178" width="160" height="34" as="geometry" />
        </mxCell>
        <mxCell id="khZXWstZWjZ8gAjqF4nT-24" value="" style="line;strokeWidth=1;fillColor=none;align=left;verticalAlign=middle;spacingTop=-1;spacingLeft=3;spacingRight=3;rotatable=0;labelPosition=right;points=[];portConstraint=eastwest;strokeColor=inherit;" vertex="1" parent="khZXWstZWjZ8gAjqF4nT-23">
          <mxGeometry y="26" width="160" height="8" as="geometry" />
        </mxCell>
        <mxCell id="khZXWstZWjZ8gAjqF4nT-25" value="助教" style="swimlane;fontStyle=1;align=center;verticalAlign=top;childLayout=stackLayout;horizontal=1;startSize=26;horizontalStack=0;resizeParent=1;resizeParentMax=0;resizeLast=0;collapsible=1;marginBottom=0;whiteSpace=wrap;html=1;" vertex="1" parent="1">
          <mxGeometry x="75" y="488" width="160" height="34" as="geometry" />
        </mxCell>
        <mxCell id="khZXWstZWjZ8gAjqF4nT-26" value="" style="line;strokeWidth=1;fillColor=none;align=left;verticalAlign=middle;spacingTop=-1;spacingLeft=3;spacingRight=3;rotatable=0;labelPosition=right;points=[];portConstraint=eastwest;strokeColor=inherit;" vertex="1" parent="khZXWstZWjZ8gAjqF4nT-25">
          <mxGeometry y="26" width="160" height="8" as="geometry" />
        </mxCell>
        <mxCell id="khZXWstZWjZ8gAjqF4nT-27" value="" style="endArrow=block;endSize=16;endFill=0;html=1;rounded=0;exitX=0.5;exitY=0;exitDx=0;exitDy=0;entryX=0.725;entryY=0.975;entryDx=0;entryDy=0;entryPerimeter=0;" edge="1" parent="1" source="khZXWstZWjZ8gAjqF4nT-17" target="khZXWstZWjZ8gAjqF4nT-14">
          <mxGeometry width="160" relative="1" as="geometry">
            <mxPoint x="250" y="278" as="sourcePoint" />
            <mxPoint x="-30" y="78" as="targetPoint" />
          </mxGeometry>
        </mxCell>
        <mxCell id="khZXWstZWjZ8gAjqF4nT-28" value="" style="endArrow=block;endSize=16;endFill=0;html=1;rounded=0;exitX=0.595;exitY=-0.088;exitDx=0;exitDy=0;exitPerimeter=0;" edge="1" parent="1" source="khZXWstZWjZ8gAjqF4nT-15">
          <mxGeometry width="160" relative="1" as="geometry">
            <mxPoint x="-30" y="172" as="sourcePoint" />
            <mxPoint x="-30" y="58" as="targetPoint" />
          </mxGeometry>
        </mxCell>
        <mxCell id="khZXWstZWjZ8gAjqF4nT-29" value="" style="endArrow=block;endSize=16;endFill=0;html=1;rounded=0;exitX=0.343;exitY=0.029;exitDx=0;exitDy=0;exitPerimeter=0;" edge="1" parent="1" source="khZXWstZWjZ8gAjqF4nT-23">
          <mxGeometry width="160" relative="1" as="geometry">
            <mxPoint x="604" y="168" as="sourcePoint" />
            <mxPoint x="340" y="68" as="targetPoint" />
          </mxGeometry>
        </mxCell>
        <mxCell id="khZXWstZWjZ8gAjqF4nT-30" value="" style="endArrow=block;endSize=16;endFill=0;html=1;rounded=0;exitX=0.622;exitY=-0.041;exitDx=0;exitDy=0;exitPerimeter=0;" edge="1" parent="1" source="khZXWstZWjZ8gAjqF4nT-21">
          <mxGeometry width="160" relative="1" as="geometry">
            <mxPoint x="524" y="168" as="sourcePoint" />
            <mxPoint x="310" y="68" as="targetPoint" />
          </mxGeometry>
        </mxCell>
        <mxCell id="khZXWstZWjZ8gAjqF4nT-31" value="" style="endArrow=none;html=1;rounded=0;entryX=0.5;entryY=1;entryDx=0;entryDy=0;exitX=0.405;exitY=0.006;exitDx=0;exitDy=0;exitPerimeter=0;" edge="1" parent="1" source="khZXWstZWjZ8gAjqF4nT-25" target="khZXWstZWjZ8gAjqF4nT-21">
          <mxGeometry width="50" height="50" relative="1" as="geometry">
            <mxPoint x="300" y="308" as="sourcePoint" />
            <mxPoint x="350" y="258" as="targetPoint" />
          </mxGeometry>
        </mxCell>
        <mxCell id="khZXWstZWjZ8gAjqF4nT-32" value="" style="endArrow=none;html=1;rounded=0;exitX=0.315;exitY=-0.112;exitDx=0;exitDy=0;exitPerimeter=0;" edge="1" parent="1" source="khZXWstZWjZ8gAjqF4nT-25">
          <mxGeometry width="50" height="50" relative="1" as="geometry">
            <mxPoint x="300" y="308" as="sourcePoint" />
            <mxPoint x="70" y="218" as="targetPoint" />
          </mxGeometry>
        </mxCell>
        <mxCell id="khZXWstZWjZ8gAjqF4nT-33" value="" style="endArrow=none;html=1;rounded=0;entryX=0.5;entryY=1;entryDx=0;entryDy=0;exitX=0.69;exitY=-0.112;exitDx=0;exitDy=0;exitPerimeter=0;" edge="1" parent="1" source="khZXWstZWjZ8gAjqF4nT-25" target="khZXWstZWjZ8gAjqF4nT-23">
          <mxGeometry width="50" height="50" relative="1" as="geometry">
            <mxPoint x="300" y="308" as="sourcePoint" />
            <mxPoint x="350" y="258" as="targetPoint" />
          </mxGeometry>
        </mxCell>
        <mxCell id="khZXWstZWjZ8gAjqF4nT-34" value="0...1" style="text;html=1;align=center;verticalAlign=middle;resizable=0;points=[];autosize=1;strokeColor=none;fillColor=none;" vertex="1" parent="1">
          <mxGeometry x="75" y="213" width="50" height="30" as="geometry" />
        </mxCell>
        <mxCell id="khZXWstZWjZ8gAjqF4nT-35" value="0...1" style="text;html=1;align=center;verticalAlign=middle;resizable=0;points=[];autosize=1;strokeColor=none;fillColor=none;" vertex="1" parent="1">
          <mxGeometry x="70" y="458" width="50" height="30" as="geometry" />
        </mxCell>
        <mxCell id="khZXWstZWjZ8gAjqF4nT-36" value="1" style="text;html=1;align=center;verticalAlign=middle;resizable=0;points=[];autosize=1;strokeColor=none;fillColor=none;" vertex="1" parent="1">
          <mxGeometry x="160" y="458" width="30" height="30" as="geometry" />
        </mxCell>
        <mxCell id="khZXWstZWjZ8gAjqF4nT-37" value="1..5" style="text;html=1;align=center;verticalAlign=middle;resizable=0;points=[];autosize=1;strokeColor=none;fillColor=none;" vertex="1" parent="1">
          <mxGeometry x="230" y="458" width="40" height="30" as="geometry" />
        </mxCell>
        <mxCell id="khZXWstZWjZ8gAjqF4nT-38" value="1" style="text;html=1;align=center;verticalAlign=middle;resizable=0;points=[];autosize=1;strokeColor=none;fillColor=none;" vertex="1" parent="1">
          <mxGeometry x="280" y="213" width="30" height="30" as="geometry" />
        </mxCell>
        <mxCell id="khZXWstZWjZ8gAjqF4nT-39" value="1" style="text;html=1;align=center;verticalAlign=middle;resizable=0;points=[];autosize=1;strokeColor=none;fillColor=none;" vertex="1" parent="1">
          <mxGeometry x="655" y="213" width="30" height="30" as="geometry" />
        </mxCell>
        <mxCell id="khZXWstZWjZ8gAjqF4nT-43" value="Teacher" style="swimlane;fontStyle=1;align=center;verticalAlign=top;childLayout=stackLayout;horizontal=1;startSize=26;horizontalStack=0;resizeParent=1;resizeParentMax=0;resizeLast=0;collapsible=1;marginBottom=0;whiteSpace=wrap;html=1;" vertex="1" parent="1">
          <mxGeometry x="-30" y="860" width="160" height="68" as="geometry" />
        </mxCell>
        <mxCell id="khZXWstZWjZ8gAjqF4nT-44" value="Tid:String&lt;br&gt;Tname:String" style="text;strokeColor=none;fillColor=none;align=left;verticalAlign=top;spacingLeft=4;spacingRight=4;overflow=hidden;rotatable=0;points=[[0,0.5],[1,0.5]];portConstraint=eastwest;whiteSpace=wrap;html=1;" vertex="1" parent="khZXWstZWjZ8gAjqF4nT-43">
          <mxGeometry y="26" width="160" height="34" as="geometry" />
        </mxCell>
        <mxCell id="khZXWstZWjZ8gAjqF4nT-45" value="" style="line;strokeWidth=1;fillColor=none;align=left;verticalAlign=middle;spacingTop=-1;spacingLeft=3;spacingRight=3;rotatable=0;labelPosition=right;points=[];portConstraint=eastwest;strokeColor=inherit;" vertex="1" parent="khZXWstZWjZ8gAjqF4nT-43">
          <mxGeometry y="60" width="160" height="8" as="geometry" />
        </mxCell>
        <mxCell id="khZXWstZWjZ8gAjqF4nT-46" value="Course" style="swimlane;fontStyle=1;align=center;verticalAlign=top;childLayout=stackLayout;horizontal=1;startSize=26;horizontalStack=0;resizeParent=1;resizeParentMax=0;resizeLast=0;collapsible=1;marginBottom=0;whiteSpace=wrap;html=1;" vertex="1" parent="1">
          <mxGeometry x="290" y="988" width="160" height="78" as="geometry" />
        </mxCell>
        <mxCell id="khZXWstZWjZ8gAjqF4nT-47" value="Cid:String&lt;br&gt;Cname:String" style="text;strokeColor=none;fillColor=none;align=left;verticalAlign=top;spacingLeft=4;spacingRight=4;overflow=hidden;rotatable=0;points=[[0,0.5],[1,0.5]];portConstraint=eastwest;whiteSpace=wrap;html=1;" vertex="1" parent="khZXWstZWjZ8gAjqF4nT-46">
          <mxGeometry y="26" width="160" height="44" as="geometry" />
        </mxCell>
        <mxCell id="khZXWstZWjZ8gAjqF4nT-48" value="" style="line;strokeWidth=1;fillColor=none;align=left;verticalAlign=middle;spacingTop=-1;spacingLeft=3;spacingRight=3;rotatable=0;labelPosition=right;points=[];portConstraint=eastwest;strokeColor=inherit;" vertex="1" parent="khZXWstZWjZ8gAjqF4nT-46">
          <mxGeometry y="70" width="160" height="8" as="geometry" />
        </mxCell>
        <mxCell id="khZXWstZWjZ8gAjqF4nT-49" value="CompulsoryCourse" style="swimlane;fontStyle=1;align=center;verticalAlign=top;childLayout=stackLayout;horizontal=1;startSize=26;horizontalStack=0;resizeParent=1;resizeParentMax=0;resizeLast=0;collapsible=1;marginBottom=0;whiteSpace=wrap;html=1;" vertex="1" parent="1">
          <mxGeometry x="95" y="1118" width="160" height="34" as="geometry" />
        </mxCell>
        <mxCell id="khZXWstZWjZ8gAjqF4nT-50" value="" style="line;strokeWidth=1;fillColor=none;align=left;verticalAlign=middle;spacingTop=-1;spacingLeft=3;spacingRight=3;rotatable=0;labelPosition=right;points=[];portConstraint=eastwest;strokeColor=inherit;" vertex="1" parent="khZXWstZWjZ8gAjqF4nT-49">
          <mxGeometry y="26" width="160" height="8" as="geometry" />
        </mxCell>
        <mxCell id="khZXWstZWjZ8gAjqF4nT-51" value="OptionalCourse" style="swimlane;fontStyle=1;align=center;verticalAlign=top;childLayout=stackLayout;horizontal=1;startSize=26;horizontalStack=0;resizeParent=1;resizeParentMax=0;resizeLast=0;collapsible=1;marginBottom=0;whiteSpace=wrap;html=1;" vertex="1" parent="1">
          <mxGeometry x="450" y="1118" width="160" height="34" as="geometry" />
        </mxCell>
        <mxCell id="khZXWstZWjZ8gAjqF4nT-52" value="" style="line;strokeWidth=1;fillColor=none;align=left;verticalAlign=middle;spacingTop=-1;spacingLeft=3;spacingRight=3;rotatable=0;labelPosition=right;points=[];portConstraint=eastwest;strokeColor=inherit;" vertex="1" parent="khZXWstZWjZ8gAjqF4nT-51">
          <mxGeometry y="26" width="160" height="8" as="geometry" />
        </mxCell>
        <mxCell id="khZXWstZWjZ8gAjqF4nT-53" value="" style="endArrow=none;html=1;rounded=0;entryX=-0.025;entryY=0.241;entryDx=0;entryDy=0;entryPerimeter=0;exitX=1.005;exitY=0.253;exitDx=0;exitDy=0;exitPerimeter=0;" edge="1" parent="1" source="khZXWstZWjZ8gAjqF4nT-44" target="khZXWstZWjZ8gAjqF4nT-47">
          <mxGeometry width="50" height="50" relative="1" as="geometry">
            <mxPoint x="180" y="1008" as="sourcePoint" />
            <mxPoint x="230" y="958" as="targetPoint" />
          </mxGeometry>
        </mxCell>
        <mxCell id="khZXWstZWjZ8gAjqF4nT-55" value="" style="endArrow=block;endSize=16;endFill=0;html=1;rounded=0;exitX=0.571;exitY=-0.041;exitDx=0;exitDy=0;exitPerimeter=0;" edge="1" parent="1" source="khZXWstZWjZ8gAjqF4nT-49">
          <mxGeometry x="-0.2538" y="22" width="160" relative="1" as="geometry">
            <mxPoint x="130" y="1088" as="sourcePoint" />
            <mxPoint x="300" y="1068" as="targetPoint" />
            <mxPoint as="offset" />
          </mxGeometry>
        </mxCell>
        <mxCell id="khZXWstZWjZ8gAjqF4nT-56" value="" style="endArrow=block;endSize=16;endFill=0;html=1;rounded=0;exitX=0.25;exitY=0;exitDx=0;exitDy=0;" edge="1" parent="1" source="khZXWstZWjZ8gAjqF4nT-51">
          <mxGeometry x="-0.2538" y="22" width="160" relative="1" as="geometry">
            <mxPoint x="196" y="1127" as="sourcePoint" />
            <mxPoint x="380" y="1068" as="targetPoint" />
            <mxPoint as="offset" />
          </mxGeometry>
        </mxCell>
        <mxCell id="khZXWstZWjZ8gAjqF4nT-57" value="1..3" style="text;html=1;align=center;verticalAlign=middle;resizable=0;points=[];autosize=1;strokeColor=none;fillColor=none;" vertex="1" parent="1">
          <mxGeometry x="140" y="879" width="40" height="30" as="geometry" />
        </mxCell>
        <mxCell id="khZXWstZWjZ8gAjqF4nT-58" value="0..n" style="text;html=1;align=center;verticalAlign=middle;resizable=0;points=[];autosize=1;strokeColor=none;fillColor=none;" vertex="1" parent="1">
          <mxGeometry x="260" y="1023" width="40" height="30" as="geometry" />
        </mxCell>
        <mxCell id="khZXWstZWjZ8gAjqF4nT-82" value="公司" style="swimlane;fontStyle=1;align=center;verticalAlign=top;childLayout=stackLayout;horizontal=1;startSize=26;horizontalStack=0;resizeParent=1;resizeParentMax=0;resizeLast=0;collapsible=1;marginBottom=0;whiteSpace=wrap;html=1;" vertex="1" parent="1">
          <mxGeometry x="-1850" y="290" width="160" height="34" as="geometry" />
        </mxCell>
        <mxCell id="khZXWstZWjZ8gAjqF4nT-83" value="" style="line;strokeWidth=1;fillColor=none;align=left;verticalAlign=middle;spacingTop=-1;spacingLeft=3;spacingRight=3;rotatable=0;labelPosition=right;points=[];portConstraint=eastwest;strokeColor=inherit;" vertex="1" parent="khZXWstZWjZ8gAjqF4nT-82">
          <mxGeometry y="26" width="160" height="8" as="geometry" />
        </mxCell>
        <mxCell id="khZXWstZWjZ8gAjqF4nT-84" value="部门" style="swimlane;fontStyle=1;align=center;verticalAlign=top;childLayout=stackLayout;horizontal=1;startSize=26;horizontalStack=0;resizeParent=1;resizeParentMax=0;resizeLast=0;collapsible=1;marginBottom=0;whiteSpace=wrap;html=1;" vertex="1" parent="1">
          <mxGeometry x="-1850" y="390" width="160" height="34" as="geometry" />
        </mxCell>
        <mxCell id="khZXWstZWjZ8gAjqF4nT-85" value="" style="line;strokeWidth=1;fillColor=none;align=left;verticalAlign=middle;spacingTop=-1;spacingLeft=3;spacingRight=3;rotatable=0;labelPosition=right;points=[];portConstraint=eastwest;strokeColor=inherit;" vertex="1" parent="khZXWstZWjZ8gAjqF4nT-84">
          <mxGeometry y="26" width="160" height="8" as="geometry" />
        </mxCell>
        <mxCell id="khZXWstZWjZ8gAjqF4nT-86" value="部门经理" style="swimlane;fontStyle=1;align=center;verticalAlign=top;childLayout=stackLayout;horizontal=1;startSize=26;horizontalStack=0;resizeParent=1;resizeParentMax=0;resizeLast=0;collapsible=1;marginBottom=0;whiteSpace=wrap;html=1;" vertex="1" parent="1">
          <mxGeometry x="-2160" y="300" width="160" height="34" as="geometry" />
        </mxCell>
        <mxCell id="khZXWstZWjZ8gAjqF4nT-87" value="" style="line;strokeWidth=1;fillColor=none;align=left;verticalAlign=middle;spacingTop=-1;spacingLeft=3;spacingRight=3;rotatable=0;labelPosition=right;points=[];portConstraint=eastwest;strokeColor=inherit;" vertex="1" parent="khZXWstZWjZ8gAjqF4nT-86">
          <mxGeometry y="26" width="160" height="8" as="geometry" />
        </mxCell>
        <mxCell id="khZXWstZWjZ8gAjqF4nT-88" value="项目" style="swimlane;fontStyle=1;align=center;verticalAlign=top;childLayout=stackLayout;horizontal=1;startSize=26;horizontalStack=0;resizeParent=1;resizeParentMax=0;resizeLast=0;collapsible=1;marginBottom=0;whiteSpace=wrap;html=1;" vertex="1" parent="1">
          <mxGeometry x="-1510" y="80" width="160" height="34" as="geometry" />
        </mxCell>
        <mxCell id="khZXWstZWjZ8gAjqF4nT-89" value="" style="line;strokeWidth=1;fillColor=none;align=left;verticalAlign=middle;spacingTop=-1;spacingLeft=3;spacingRight=3;rotatable=0;labelPosition=right;points=[];portConstraint=eastwest;strokeColor=inherit;" vertex="1" parent="khZXWstZWjZ8gAjqF4nT-88">
          <mxGeometry y="26" width="160" height="8" as="geometry" />
        </mxCell>
        <mxCell id="khZXWstZWjZ8gAjqF4nT-90" value="工人" style="swimlane;fontStyle=1;align=center;verticalAlign=top;childLayout=stackLayout;horizontal=1;startSize=26;horizontalStack=0;resizeParent=1;resizeParentMax=0;resizeLast=0;collapsible=1;marginBottom=0;whiteSpace=wrap;html=1;" vertex="1" parent="1">
          <mxGeometry x="-1630" y="290" width="160" height="34" as="geometry" />
        </mxCell>
        <mxCell id="khZXWstZWjZ8gAjqF4nT-91" value="" style="line;strokeWidth=1;fillColor=none;align=left;verticalAlign=middle;spacingTop=-1;spacingLeft=3;spacingRight=3;rotatable=0;labelPosition=right;points=[];portConstraint=eastwest;strokeColor=inherit;" vertex="1" parent="khZXWstZWjZ8gAjqF4nT-90">
          <mxGeometry y="26" width="160" height="8" as="geometry" />
        </mxCell>
        <mxCell id="khZXWstZWjZ8gAjqF4nT-92" value="经理" style="swimlane;fontStyle=1;align=center;verticalAlign=top;childLayout=stackLayout;horizontal=1;startSize=26;horizontalStack=0;resizeParent=1;resizeParentMax=0;resizeLast=0;collapsible=1;marginBottom=0;whiteSpace=wrap;html=1;" vertex="1" parent="1">
          <mxGeometry x="-1250" y="290" width="160" height="34" as="geometry" />
        </mxCell>
        <mxCell id="khZXWstZWjZ8gAjqF4nT-93" value="" style="line;strokeWidth=1;fillColor=none;align=left;verticalAlign=middle;spacingTop=-1;spacingLeft=3;spacingRight=3;rotatable=0;labelPosition=right;points=[];portConstraint=eastwest;strokeColor=inherit;" vertex="1" parent="khZXWstZWjZ8gAjqF4nT-92">
          <mxGeometry y="26" width="160" height="8" as="geometry" />
        </mxCell>
        <mxCell id="khZXWstZWjZ8gAjqF4nT-94" value="员工" style="swimlane;fontStyle=1;align=center;verticalAlign=top;childLayout=stackLayout;horizontal=1;startSize=26;horizontalStack=0;resizeParent=1;resizeParentMax=0;resizeLast=0;collapsible=1;marginBottom=0;whiteSpace=wrap;html=1;" vertex="1" parent="1">
          <mxGeometry x="-1495" y="480" width="160" height="34" as="geometry" />
        </mxCell>
        <mxCell id="khZXWstZWjZ8gAjqF4nT-95" value="" style="line;strokeWidth=1;fillColor=none;align=left;verticalAlign=middle;spacingTop=-1;spacingLeft=3;spacingRight=3;rotatable=0;labelPosition=right;points=[];portConstraint=eastwest;strokeColor=inherit;" vertex="1" parent="khZXWstZWjZ8gAjqF4nT-94">
          <mxGeometry y="26" width="160" height="8" as="geometry" />
        </mxCell>
        <mxCell id="khZXWstZWjZ8gAjqF4nT-104" value="0...1" style="text;html=1;align=center;verticalAlign=middle;resizable=0;points=[];autosize=1;strokeColor=none;fillColor=none;" vertex="1" parent="1">
          <mxGeometry x="-1900" y="377" width="50" height="30" as="geometry" />
        </mxCell>
        <mxCell id="khZXWstZWjZ8gAjqF4nT-105" value="n" style="text;html=1;align=center;verticalAlign=middle;resizable=0;points=[];autosize=1;strokeColor=none;fillColor=none;" vertex="1" parent="1">
          <mxGeometry x="-1445" y="130" width="30" height="30" as="geometry" />
        </mxCell>
        <mxCell id="khZXWstZWjZ8gAjqF4nT-106" value="1" style="text;html=1;align=center;verticalAlign=middle;resizable=0;points=[];autosize=1;strokeColor=none;fillColor=none;" vertex="1" parent="1">
          <mxGeometry x="-1525" y="250" width="30" height="30" as="geometry" />
        </mxCell>
        <mxCell id="khZXWstZWjZ8gAjqF4nT-110" value="" style="endArrow=diamondThin;endFill=0;endSize=24;html=1;rounded=0;exitX=0.5;exitY=1;exitDx=0;exitDy=0;entryX=0.5;entryY=0;entryDx=0;entryDy=0;" edge="1" parent="1" source="khZXWstZWjZ8gAjqF4nT-88" target="khZXWstZWjZ8gAjqF4nT-90">
          <mxGeometry width="160" relative="1" as="geometry">
            <mxPoint x="-1690" y="260" as="sourcePoint" />
            <mxPoint x="-1530" y="260" as="targetPoint" />
          </mxGeometry>
        </mxCell>
        <mxCell id="khZXWstZWjZ8gAjqF4nT-111" value="" style="endArrow=diamondThin;endFill=0;endSize=24;html=1;rounded=0;entryX=0.5;entryY=0;entryDx=0;entryDy=0;" edge="1" parent="1" target="khZXWstZWjZ8gAjqF4nT-92">
          <mxGeometry width="160" relative="1" as="geometry">
            <mxPoint x="-1420" y="120" as="sourcePoint" />
            <mxPoint x="-1540" y="300" as="targetPoint" />
          </mxGeometry>
        </mxCell>
        <mxCell id="khZXWstZWjZ8gAjqF4nT-112" value="n" style="text;html=1;align=center;verticalAlign=middle;resizable=0;points=[];autosize=1;strokeColor=none;fillColor=none;" vertex="1" parent="1">
          <mxGeometry x="-1380" y="114" width="30" height="30" as="geometry" />
        </mxCell>
        <mxCell id="khZXWstZWjZ8gAjqF4nT-113" value="n" style="text;html=1;align=center;verticalAlign=middle;resizable=0;points=[];autosize=1;strokeColor=none;fillColor=none;" vertex="1" parent="1">
          <mxGeometry x="-1210" y="230" width="30" height="30" as="geometry" />
        </mxCell>
        <mxCell id="khZXWstZWjZ8gAjqF4nT-114" value="" style="endArrow=block;endSize=16;endFill=0;html=1;rounded=0;entryX=0.5;entryY=0;entryDx=0;entryDy=0;" edge="1" parent="1" target="khZXWstZWjZ8gAjqF4nT-94">
          <mxGeometry width="160" relative="1" as="geometry">
            <mxPoint x="-1560" y="330" as="sourcePoint" />
            <mxPoint x="-1115" y="380" as="targetPoint" />
          </mxGeometry>
        </mxCell>
        <mxCell id="khZXWstZWjZ8gAjqF4nT-115" value="" style="endArrow=block;endSize=16;endFill=0;html=1;rounded=0;entryX=0.5;entryY=0;entryDx=0;entryDy=0;exitX=0.5;exitY=1;exitDx=0;exitDy=0;" edge="1" parent="1" source="khZXWstZWjZ8gAjqF4nT-92" target="khZXWstZWjZ8gAjqF4nT-94">
          <mxGeometry width="160" relative="1" as="geometry">
            <mxPoint x="-1550" y="340" as="sourcePoint" />
            <mxPoint x="-1410" y="440" as="targetPoint" />
          </mxGeometry>
        </mxCell>
        <mxCell id="khZXWstZWjZ8gAjqF4nT-117" value="" style="endArrow=diamondThin;endFill=0;endSize=24;html=1;rounded=0;exitX=0;exitY=0.5;exitDx=0;exitDy=0;entryX=1;entryY=1;entryDx=0;entryDy=0;" edge="1" parent="1" source="khZXWstZWjZ8gAjqF4nT-94" target="khZXWstZWjZ8gAjqF4nT-82">
          <mxGeometry width="160" relative="1" as="geometry">
            <mxPoint x="-1420" y="124" as="sourcePoint" />
            <mxPoint x="-1540" y="300" as="targetPoint" />
          </mxGeometry>
        </mxCell>
        <mxCell id="khZXWstZWjZ8gAjqF4nT-118" value="1" style="text;html=1;align=center;verticalAlign=middle;resizable=0;points=[];autosize=1;strokeColor=none;fillColor=none;" vertex="1" parent="1">
          <mxGeometry x="-1684" y="294" width="30" height="30" as="geometry" />
        </mxCell>
        <mxCell id="khZXWstZWjZ8gAjqF4nT-119" value="" style="endArrow=diamondThin;endFill=0;endSize=24;html=1;rounded=0;exitX=0.5;exitY=0;exitDx=0;exitDy=0;entryX=0.5;entryY=1;entryDx=0;entryDy=0;" edge="1" parent="1" source="khZXWstZWjZ8gAjqF4nT-84" target="khZXWstZWjZ8gAjqF4nT-82">
          <mxGeometry width="160" relative="1" as="geometry">
            <mxPoint x="-1485" y="507" as="sourcePoint" />
            <mxPoint x="-1680" y="334" as="targetPoint" />
          </mxGeometry>
        </mxCell>
        <mxCell id="khZXWstZWjZ8gAjqF4nT-120" value="产品" style="swimlane;fontStyle=1;align=center;verticalAlign=top;childLayout=stackLayout;horizontal=1;startSize=26;horizontalStack=0;resizeParent=1;resizeParentMax=0;resizeLast=0;collapsible=1;marginBottom=0;whiteSpace=wrap;html=1;" vertex="1" parent="1">
          <mxGeometry x="-1850" y="488" width="160" height="34" as="geometry" />
        </mxCell>
        <mxCell id="khZXWstZWjZ8gAjqF4nT-121" value="" style="line;strokeWidth=1;fillColor=none;align=left;verticalAlign=middle;spacingTop=-1;spacingLeft=3;spacingRight=3;rotatable=0;labelPosition=right;points=[];portConstraint=eastwest;strokeColor=inherit;" vertex="1" parent="khZXWstZWjZ8gAjqF4nT-120">
          <mxGeometry y="26" width="160" height="8" as="geometry" />
        </mxCell>
        <mxCell id="khZXWstZWjZ8gAjqF4nT-122" value="" style="endArrow=diamondThin;endFill=0;endSize=24;html=1;rounded=0;exitX=0.5;exitY=0;exitDx=0;exitDy=0;entryX=0.5;entryY=1;entryDx=0;entryDy=0;" edge="1" parent="1" source="khZXWstZWjZ8gAjqF4nT-120" target="khZXWstZWjZ8gAjqF4nT-84">
          <mxGeometry width="160" relative="1" as="geometry">
            <mxPoint x="-1760" y="400" as="sourcePoint" />
            <mxPoint x="-1760" y="334" as="targetPoint" />
          </mxGeometry>
        </mxCell>
        <mxCell id="khZXWstZWjZ8gAjqF4nT-126" value="" style="line;strokeWidth=1;fillColor=none;align=left;verticalAlign=middle;spacingTop=-1;spacingLeft=3;spacingRight=3;rotatable=0;labelPosition=right;points=[];portConstraint=eastwest;strokeColor=inherit;" vertex="1" parent="1">
          <mxGeometry x="-2080" y="377" width="230" height="60" as="geometry" />
        </mxCell>
        <mxCell id="khZXWstZWjZ8gAjqF4nT-128" value="" style="shape=partialRectangle;whiteSpace=wrap;html=1;right=0;top=0;bottom=0;fillColor=none;routingCenterX=-0.5;" vertex="1" parent="1">
          <mxGeometry x="-2080" y="334" width="120" height="70" as="geometry" />
        </mxCell>
        <mxCell id="khZXWstZWjZ8gAjqF4nT-129" value="n" style="text;html=1;align=center;verticalAlign=middle;resizable=0;points=[];autosize=1;strokeColor=none;fillColor=none;" vertex="1" parent="1">
          <mxGeometry x="-2067" y="347" width="30" height="30" as="geometry" />
        </mxCell>
      </root>
    </mxGraphModel>
  </diagram>
</mxfile>
